<?xml version="1.0" encoding="UTF-8"?>
<svg id="Capa_2" data-name="Capa 2" xmlns="http://www.w3.org/2000/svg" viewBox="0 0 1366 768">
  <defs>
    <style>
      .cls-1 {
        fill: #dd0029;
        stroke-width: 0px;
      }
    </style>
  </defs>
  <g>
    <polygon class="cls-1" points="605.41 180.09 600.59 181.13 595.72 181.13 592.79 185.13 594.85 189.74 595.07 194.42 596.07 198.87 598.44 202.95 599.63 207.36 599.24 212.12 600.18 216.57 601.12 221.02 601.6 225.55 602.48 230 604.37 234.3 603.87 238.98 605.56 243.33 605.74 247.9 607.62 252.26 607.7 256.83 607.53 261.43 608.63 265.9 609.39 270.4 609.46 274.97 609.58 279.53 608.57 284.16 608.72 288.71 609.15 293.24 611.39 297.66 611.45 302.22 611.43 306.79 610.25 311.41 611 315.93 610.46 320.52 612.02 325 611.29 329.6 612.97 334.06 612.04 338.68 613.55 343.15 611.81 347.82 612.6 352.33 613.99 356.79 613.35 361.41 615.6 365.78 616.01 370.3 614.83 374.98 615.2 379.52 615.65 384.05 615.9 388.61 618.61 392.83 619.22 397.32 618.3 402.05 618.62 406.62 621.54 410.7 621.62 415.31 621.7 419.93 622.07 424.52 624.54 428.6 624.36 433.36 626.6 437.23 627.7 441.53 630.83 444.74 632.89 448.59 636.02 451.6 638.5 455.38 642.55 457.27 646.55 458.98 650.33 461.03 654.31 462.75 658.86 463.33 663.37 463.54 667.95 464.85 672.67 464.46 676.86 462.2 679.99 458.68 683.86 456.24 686.1 452.25 689.34 448.87 691.45 444.76 691.03 439.8 693.46 435.8 693.93 431.26 695.16 426.88 695.02 422.29 695.37 417.79 696 413.29 697.57 408.79 696.31 404.22 697.47 399.66 696.47 395.13 696.87 390.55 695.52 386.08 695.73 381.49 694.91 377 694.78 372.44 693.83 367.97 694.36 363.3 692.29 359.01 691.15 354.59 692.22 349.79 691.22 345.34 688.59 341.23 687.95 336.72 687.83 332.1 685.96 327.86 685.62 323.26 684.88 318.76 684.37 314.18 681.67 310.18 680.71 305.72 680.65 301 678.79 296.8 678.3 292.18 676.03 288.1 674.74 283.73 673.63 279.29 672.61 274.82 669.37 271.13 668.07 266.76 667.68 262.03 664.59 258.35 663.31 253.96 662.79 249.23 658.97 245.91 657.36 241.65 656.64 236.97 655.19 232.59 652.2 228.98 649.1 225.46 647.18 221.34 645.59 217.01 643.86 212.74 640.25 209.63 638.68 205.2 634.79 202.38 632.91 198.1 629.96 194.64 626.74 191.43 623.73 187.99 619.7 185.78 615.97 183.29 611.95 181.36 607.68 180.01 605.41 180.09"/>
    <polygon class="cls-1" points="605.48 175.73 600.92 176.13 596.51 177.08 593.17 179.67 588.91 182.33 589.54 186.77 589.32 191.13 592.02 194.69 593.63 198.45 592.96 202.79 595.62 206.3 595.71 210.43 596.19 214.98 598.69 219.11 597.83 223.91 600.42 228.06 598.84 232.94 601.91 237.05 602.18 241.62 602.77 246.13 601.72 250.85 603.86 255.17 602.98 259.84 605.11 264.19 605.4 268.74 605.58 273.29 604.18 278.02 606.78 282.44 606.69 287.06 606.93 291.67 605.2 296.38 606.83 300.9 606.25 305.54 606.85 310.12 606.2 314.77 608.69 319.25 607.03 323.95 607.11 328.55 607.77 333.13 609.02 337.67 609.38 342.26 609.4 346.87 609 351.5 610.51 356.01 610.62 360.62 610.71 365.22 609.62 369.94 610 374.53 612.45 378.92 613.15 383.46 612.74 388.13 612.06 392.87 612.99 397.39 614 401.66 615.67 405.81 616.54 410.07 617.67 414.29 617.94 418.67 619.01 422.9 620.66 426.97 620.67 431.44 622.63 435.37 623.65 439.59 625.38 443.57 627.33 447.46 630.48 450.5 633.96 453.38 636.96 456.68 640.63 459.22 644.55 461.31 648.08 464.28 652.42 465.57 656.8 466.58 661.24 467.32 666.06 468.7 670.83 467.45 675.57 466.34 680.12 464.49 682.94 460.18 687.34 457.95 689.09 453.31 693.48 450.8 693.28 445.78 695.36 441.91 697.66 437.99 697.8 433.47 700.04 429.36 700.91 424.95 700.53 420.44 699.64 415.94 699.88 411.58 699.69 407.2 701.87 402.81 699.52 398.48 700.1 394.07 699.96 389.69 700.23 385.27 700.15 380.86 698.62 376.61 698.93 372.15 698.36 367.79 696.44 363.64 697.1 359.09 696.38 354.75 693.75 350.76 694.88 346.07 692.63 342.04 692.48 337.58 691.29 333.35 689.8 329.18 689.86 324.66 688.75 320.4 686.74 316.38 685.6 312.14 685.97 307.49 682.94 303.76 681.83 299.22 680.99 294.6 680.96 289.71 677.49 285.89 676.69 281.24 675.93 276.56 674.66 272.04 671.73 268.11 671.02 263.39 668.72 259.26 668.59 254.28 664.91 250.71 663.6 246.19 661.8 241.85 660 237.51 658.79 232.9 657.03 228.52 653.52 225 651.54 220.75 649.03 216.78 646.65 212.75 645.75 207.81 643.51 203.63 640.03 200.29 636.95 196.98 635.62 192.29 631.66 189.72 629.44 185.55 625.33 183.32 621.61 180.75 617.56 178.79 613.29 177.54 609.52 176.01 605.49 175.59 601.36 177.43 602.2 181.74 605.36 183.88 609.33 184.04 610.75 184.44 610.55 185.26 611.72 184.7 614.57 186.15 616.79 185.59 616.68 186.13 617.51 186.67 620.3 189.63 623.64 191.8 626.67 194.41 629.34 197.4 631.83 201.15 635.23 204.24 636.56 208.75 639.45 212.22 641.03 216.49 644.92 219.46 646.45 223.74 649.22 227.39 649.94 232.03 650.85 236.55 654 240.24 656.6 244.21 658.61 248.44 659.16 253.26 660 257.93 663.68 261.52 665.42 265.87 666.4 270.48 667.76 274.95 669.37 279.34 670.29 283.95 670.77 288.68 672.39 292.97 674.23 297.2 675.35 301.64 678.03 305.65 679.28 310.07 679.47 314.76 680.04 319.34 680.36 323.97 681.61 328.37 682.59 332.84 684.56 337.09 684.33 341.81 687.21 345.9 688 350.31 688.02 354.85 688.67 359.28 689.61 363.65 689.95 368.12 690.44 372.56 691.37 376.96 690.99 381.49 691.58 385.91 691.78 390.37 692.96 394.78 692.56 399.27 691.69 403.91 692.53 408.53 694.01 413.21 693.09 417.83 693.32 422.54 690.97 426.91 689.79 431.36 688.28 435.7 687.49 440.24 687.69 444.37 685.81 447.75 682.59 450.33 682.29 452.39 681.71 453.4 678.26 454.94 677.96 455.85 676.59 457.08 675.74 458.79 674.18 458.73 672.75 458.74 671.34 460.07 669.8 460.82 668.58 460.98 664.68 460.16 663.8 459.41 663.48 461.62 661.34 461.42 657.28 458.9 653.2 457.89 648.94 457.01 645.36 454.63 641.98 452.03 639.29 448.7 636.61 444.84 632.68 441.74 630.64 437.36 630.56 432.32 627.22 428.36 626.24 423.92 626.72 419.14 625.88 414.7 625.07 410.26 622.77 406.09 622.11 401.6 620.54 397.26 621.89 392.47 621.55 387.96 620.35 383.55 620.53 378.98 617.88 374.7 619.42 370 618.49 365.55 619 360.97 617.62 356.53 617.23 352.02 616.05 347.56 615.63 343.04 615.07 338.53 616.66 333.91 616.76 329.36 616.21 324.85 616.38 320.31 614.47 315.88 615.64 311.28 614.77 306.84 613.4 302.42 614.42 297.87 612.64 293.49 613.95 288.9 613 284.47 613.94 279.9 612.82 275.48 611.71 271.08 611.69 266.57 611.63 262.06 610.47 257.68 610.09 253.21 610.36 248.65 607.95 244.45 607.22 240.03 607.52 235.45 607.81 230.85 606.53 226.51 604.89 222.25 604.58 217.74 603.2 213.44 601.75 209.18 602.59 204.36 600.35 200.29 600.29 195.65 597.87 191.66 595.82 188.4 597.95 185.3 601.34 184.7 605.36 183.35 609.47 182.25 608.25 178.12 605.48 175.73"/>
  </g>
  <g>
    <path class="cls-1" d="M948.27,442.56l-2.73-3.7-1.85-4.3-3.36-3.21-2.73-3.69-2.18-4.28-3.53-3.02-4.26-2.17-3.48-2.98-3.44-3.03-3.81-2.56-3.47-3.04-3.8-2.59-4.39-1.66-3.09-3.73-4.58-1.29-3.72-2.74-3.9-2.43-3.75-2.73-4.18-1.94-4.59-1.16-4.24-1.82-3.55-3.13-4.01-2.26-3.7-2.83-4.67-1.01-3.84-2.58-4.38-1.58-3.74-2.71-2.52-2.47-4.34-2.14-2.15-4.29-2.71-3.68-2.2-4-1.56-4.28-.74-4.47.96-4.42.64-4.4,2.23-3.9.98-4.6,3.45-3.17,1.35-4.65,2.61-3.79,4.37-2.35,1.44-4.72,3.39-3.13,1.99-4.24,2.97-3.46,3.27-3.28,3.41-3.27,1.04-4.71,1.68-4.24,3.62-3.42.98-4.57-.43-4.83,2.46-4.15-.93-4.68.71-4.49-.02-4.55-.19-4.57-1.8-4.29.51-4.83-1.44-4.38-2.51-3.96-1.64-4.26-1.55-4.35-2.53-3.86-2.59-3.63-1.96-4.11-3.41-3-1.86-4.4-3.69-2.7-4.43-1.74-3.42-2.82-2.7-3.86-4.1-1.94-4.06-1.91-3.42-3.02-4.48-1.08-4.11-1.72-3.4-3.34-4.18-1.64-4.38-1.08-4.21-1.54-4.35-1.08-4.18-1.67-4.17-1.8-4.39-.99-4.42-.84-4.55-.1-4.5-.19-4.45-.47-4.4-.95-4.47-.35h-4.48s-4.47-.22-4.47-.22l-4.48-.81-4.46.95-4.56-1.31-4.47.72-4.29,1.98-4.6-.62-4.59-.03-4.39,1.09-3.77,3.25-5.04-.15-4.16,2.44-2.23,4.53-3.64,2.95-2.86,3.79-.71,4.74-.25,4.61-2.06,4.48.59,4.7,1.66,4.42.44,4.64.34,4.66,2.79,4.06.84,4.54.83,4.54.12,4.71,2.18,4.22,1.02,4.5-.46,4.85,1.68,4.34,2.61,4.12-1.11,5,1.46,4.39,2.97,4.01v4.73s.54,4.61.54,4.61l1.18,4.44,1.11,4.46.55,4.49,1.56,4.25,2.49,4.1v4.61s.78,4.45.78,4.45l-.46,4.64.51,4.48.75,4.45.99,4.42.68,4.46.56,4.48.65,4.47.74,4.46,1.55,4.38-1.99,4.73,1.84,4.34.3,4.5.89,4.44-1.05,4.64,2.33,4.3.7,4.47-.77,4.61.07,4.53,2.2,4.31-1.01,4.66,1.37,4.4.92,4.44-.81,4.65.39,4.51,1.13,4.42.68,4.47,1.62,4.33-.78,4.69,1.85,4.28.86,4.44-.73,4.72,1.71,4.28.44,4.53,2.17,4.16-.41,4.72,1.75,4.23,1.31,4.33,1.68,4.22.86,4.45.25,4.67,1.21,4.38,1.3,4.37,1.81,4.18,2.14,4.03,2.89,3.65.52,4.81,3.63,3.18,1.11,4.63,2.39,3.91,4.21,2.52,2.83,3.48,3.14,3.19,2.94,3.43,2.86,3.68,3.9,2.4,4.2,1.82,3.6,3.03,4.97-.29,4.33,1.03,3.94,3.06,4.74-1.02,4.39,1.19,4.55-.21,4.39,1.43,4.55-.59,4.42,1.84,4.56-1.43,4.49.3,4.5.02,4.49-.45,4.51.25,4.58,1.13,4.51-.4,4.35-1.99,4.61.69,4.41-1.08,4.31-1.65,4.52-.26,4.68.48,4.41-1.03,4.31-1.45,4.57-.39,4.43-1.02,3.98-2.49,3.85-2.66,4.7-.19,4.45-1.04,3.54-3.19,4.63-.74,3.54-2.98,4.72-.85,3.73-2.63,3.68-2.68,2.6-4,4.49-1.71,2.21-4.18,3.86-2.62,2.74-3.64,1.84-4.19,1.42-4.29,1.08-4.31,2.37-3.97.39-4.49-.23-4.48v-4.45s-.37-4.45-.37-4.45l-1.27-4.29.33-4.78-3.24-3.61-.21-4.8-2.68-3.72-1.87-4.11-2.64-3.69-2.8-3.57ZM804.33,254.68l-3.85-3.06-2.78-4.41-1.22-5.03.77-5.28-1.7-4.52.84-4.64.63-4.61,3.24-4.91,6.04-.31,3.8-.74,4.2-1.02,4.01,1.57,3.32,2.72,2.63,3.34,2.55,3.41,2.28,3.68,1.31,4.96-.42,5.02-2.11,4.64-.59,4.78-2.76,3.35-3.92,1.84-4.17.8-4.16,1.07-4.2-.83-3.75-1.85ZM892.93,454.86l-.26,4.73,1.89,4.42.42,4.74-2.91,4.14v4.9s-2.42,4.11-2.42,4.11l-3.64,3.05-3.28,3.43-5.04.35-3.42,2.21-4.05.88-4.05-1.23-4.09-.02-3.43-2.51-3.55-2.19-3.56-2.39-1.05-4.3-2.48-3.37-2.46-3.44-.62-5.14-2.93-4.18-.68-5.1-2.32-4.43-3.61-3.89,1.23-4.92-.31-4.42.68-5.11,4.34-3.53,5.06-1.45,4.24-1.77,4.66.19,4.44-.46,4.59-.24,3.99,2.45,4.47.93,3.78,2.48,3.59,2.73,2.89,3.46,2.43,3.74,3.34,3.1,2.35,3.87,1.78,4.2Z"/>
    <g>
      <polygon class="cls-1" points="889.42 454.78 890.07 459.6 890.44 464.43 888.43 469.02 888.99 474.04 885.66 477.7 882.65 481.19 880.13 485.62 875.2 486.49 869.94 486.58 864.57 487.17 860.06 486.69 857.47 482.92 853.71 479.77 851.56 475.37 849.85 470.82 846.82 467.33 845.46 463.12 844.19 458.89 842.27 454.93 842.46 450.11 838.46 445.35 839.77 439.43 843.28 436.29 847.29 433.88 851.75 431.62 856.86 432.21 861.05 432.19 865.45 431.94 869.71 433.07 872.64 436.7 876 439.18 880.37 440.77 882.64 444.56 885.23 448.02 887.59 451.7 888.92 455.87 891.38 458.63 894.33 456.45 896.22 454.05 893.5 450.11 892.41 445.45 889.93 441.43 886.34 438.31 884.13 433.78 878.98 432.71 875.28 429.95 871.75 426.41 867 425.56 862.47 423.69 857.55 424.24 852.7 424.51 847.97 425.63 843.31 427.07 838.9 429.14 836.57 433.64 832.87 436.5 830.87 440.9 832.83 445.52 833.12 450.04 834.42 454.69 837.15 458.78 836.93 464.08 839.38 468.28 842.17 472.33 844.44 475.94 845.74 480.01 847.05 484.27 851.23 486.32 854.3 490.04 858.59 492.25 863.31 493.1 867.97 494.61 872.84 494.42 877.28 493.5 881.51 491.93 885.02 489.1 889.45 487.41 891.59 483.24 893.43 479.23 896.46 475.99 896.91 471.73 898.05 467.6 897.11 463.38 896.52 459.25 897.41 454.71 893.73 452.69 890.47 453 889.42 454.78"/>
      <polygon class="cls-1" points="805.98 251.69 802.17 248.95 801.66 244.17 800.89 240 799.1 235.93 799.97 231.57 800.38 226.46 802.69 221.5 807.42 220.38 811.96 219.01 816.15 221.17 819.73 223.98 822.48 227.68 826 231.23 826.07 235.87 826.24 240.23 826.6 244.51 824.62 248.51 821.95 252.07 817.65 253.05 813.62 253.92 809.64 252.84 805.21 253.07 801.17 253.63 802.68 257.71 806.54 260.71 811.3 261.89 816.15 261.32 820.62 259.53 824.75 257.34 829.06 255.18 830.79 251.51 831.78 247.8 833.74 244.19 832.22 239.96 833.16 235.82 831.92 231.85 829.54 227.97 828.89 223.1 825.31 220.02 821.75 217.21 818.08 214.57 813.8 213.1 809.18 211.57 804.44 212.52 800.69 215.59 796.53 217.68 794.08 221.63 791.74 225.81 792.35 230.64 793.13 235.27 793.46 239.97 794.83 244.48 794.14 248.96 796.29 252.62 799.52 255.37 803.03 257.15 807.21 257.01 805.98 251.69"/>
      <polygon class="cls-1" points="952.26 441.54 950.45 437.16 947.46 433.54 945.28 429.29 940.54 427.19 938.79 422.48 935.59 419.05 931.89 416.16 927.72 413.83 924.07 410.97 920.56 407.91 917.21 404.6 912.71 402.92 908.97 400.16 905.2 397.44 901.99 393.74 897.98 391.33 892.94 390.76 888.99 388.82 885.58 385.88 882.3 382.68 878.25 380.89 874.18 379.16 869.82 377.98 865.88 376.03 861.84 374.25 858.26 371.61 854.19 369.57 849.87 367.91 846.63 364.48 842.62 362.15 839.55 358.27 836.6 354.36 834.49 350.2 832.31 345.97 831.23 341.18 831.73 340.09 831.81 338.41 832.48 334.72 836.4 328.95 838.42 325.07 840.83 321.42 843.53 318 847.25 315.42 849.52 311.67 852.49 308.48 855.44 305.27 856.55 300.65 860.31 297.9 861.56 293.4 866 290.93 866.12 285.89 868.56 282.2 871.29 278.53 871.93 274.05 874.54 270.14 875.69 265.74 875.41 261.26 874.41 256.87 874.36 252.57 873.71 248.31 875.25 243.69 872.17 239.87 871.84 235.5 870.69 231.31 869.79 227 868.46 222.82 865.7 219.28 864.5 215 862.23 210.98 858.61 207.89 856.91 203.43 853.9 199.94 849.37 197.97 847.37 193.42 842.94 191.56 839.78 188.18 835.88 185.77 831.76 183.75 828.38 180.48 824.32 178.34 819.8 177.15 815.68 175.29 812.11 172.06 807.18 172.16 803 170.44 798.87 168.51 794.93 165.84 789.97 166.68 785.75 164.91 781.49 163.15 777.08 161.98 772.35 162.6 768.02 160.97 763.43 161.06 759.09 158.89 754.53 160.6 750.19 159.84 745.81 159.64 741.43 159.52 737.02 158.79 732.6 158.72 728.34 160.64 723.48 160.92 718.71 161.83 713.96 162.71 708.81 162.09 703.98 163.27 699.9 166.22 696.17 169.29 691.32 171.24 689.27 175.92 685.67 179.54 684.81 184.52 683.72 189.26 683.43 194.11 683.85 198.4 683.64 202.79 684.35 207.09 684.64 211.51 686.67 215.47 687.67 219.64 688.69 223.81 689.52 228.02 692.02 231.84 691.5 236.36 692.14 240.61 694.62 244.6 695.16 249.04 696.19 253.38 696.42 257.91 697.98 262.11 699.38 266.35 700.51 270.66 701.17 275.08 703.1 279.2 702.72 283.86 704.27 288.07 704.42 292.58 707.24 296.55 707.45 301.05 709.06 305.29 708.42 309.91 708.02 314.55 709.99 318.85 711.38 323.25 712.16 327.73 711.4 332.4 710.99 337.01 713.64 341.28 714.25 345.78 714.1 350.36 714.38 354.9 714.96 359.39 714.85 363.96 714.34 368.6 715.06 373.12 716.06 377.61 716.35 382.18 718.29 386.58 718.79 391.12 718.25 395.77 718.16 400.38 717.87 405.02 718.6 409.54 719.11 414.09 720.69 418.51 720.11 423.2 722.75 427.45 723.37 431.97 723.29 436.61 723.94 441.14 724.97 445.6 725.5 450.15 726.29 454.65 727.62 459.05 727.78 463.7 729.02 468.11 730.02 472.58 732.09 476.76 732.77 481.32 733.13 485.9 735.28 489.95 738.22 493.68 739.13 498.1 741.39 502.01 741.57 506.81 743.18 511.04 744.86 515.27 747.59 518.94 751.34 521.89 753.72 525.66 755.32 530.09 758.99 532.87 762.25 535.94 764.67 539.97 769.02 541.74 772.38 544.76 776.76 546.12 780.38 548.88 784.42 550.92 788.96 551.5 793.16 553.73 797.97 553.21 802.36 554.95 806.86 556.24 811.68 554.5 816.26 554.84 820.85 556.8 825.57 556.75 830.29 555.94 834.99 556.23 839.69 556.26 844.42 556.74 849.16 556.97 853.63 555.03 858.21 554.73 862.98 555.93 867.29 553.29 871.85 552.77 876.65 553.56 881.21 552.85 885.76 552.02 889.93 549.55 894.42 548.56 898.61 546.52 903.6 547.18 908.08 546.02 912.23 543.89 916.73 542.93 920.09 539.2 925.03 539.18 928.89 536.72 933.33 535.37 936.75 532.18 940.53 529.67 943.68 526.34 947.1 523.44 950.22 520.25 954.68 518.31 957.9 515.04 960.24 511.26 962.84 507.63 963.2 502.95 966.03 499.32 966.54 494.89 966.16 490.43 967.79 486.21 966.28 481.88 967.51 477.42 966.18 473.19 966.4 468.61 964.33 464.5 962.09 460.55 960.68 456.28 959.07 452.06 956.33 448.43 954.17 444.5 952.46 440.25 948.61 439.9 946.24 441.1 945.52 443.94 947.01 448.25 949.65 451.84 952.44 455.42 953.76 459.73 955.83 463.71 957.68 467.83 956.9 472.61 958.82 476.75 958.1 481.25 959.35 485.65 959.89 490.24 957.16 494.25 955.48 498.42 954.91 503.14 951.32 506.32 949.8 510.82 946.8 514.31 944.17 518.25 939.84 520.31 935.97 522.78 932.96 526.56 928.43 527.97 924.36 529.9 920.88 533.02 916.79 534.98 912.07 535.38 907.87 536.98 903.65 538.52 899.28 539.55 895.01 540.92 890.97 543.22 886.32 543.15 882.16 545.16 877.66 545.65 873.45 547.76 868.91 548.05 864.35 548.02 859.95 549.22 855.48 550.01 850.95 550.06 846.42 550.09 841.87 548.94 837.38 548.87 832.89 549.01 828.34 550.9 823.82 550.52 819.32 549.98 814.95 548.19 810.43 548.24 805.84 546.88 800.98 547.49 796.52 545.66 791.58 545.89 787.48 543.23 782.37 542.29 779.01 538.06 774.67 535.65 770.11 533.3 767.59 529.52 763.18 527.53 760.33 524.03 759.04 519.46 756.72 515.69 754.56 511.84 752.78 507.79 748.94 504.71 747.16 500.6 747 495.86 745.82 491.54 742.3 488.04 741.65 483.53 741.15 479 740.53 474.53 737.97 470.61 738.19 465.94 736.28 461.81 736.04 457.28 734.03 453.14 733.72 448.64 732.57 444.31 732.9 439.72 731.29 435.46 730.04 431.13 729.66 426.66 729.36 422.19 728.27 417.82 727.35 413.42 728.16 408.82 728.09 404.32 726.98 399.94 725.22 395.63 725.59 391.1 724.46 386.73 725.06 382 724.8 377.36 722.28 372.95 723.07 368.2 722.09 363.63 722.09 358.97 720.89 354.42 720.33 349.81 720.18 345.15 721.06 340.38 719.23 335.91 719.88 331.15 718.46 326.58 718.48 321.83 716.81 317.31 716.72 312.56 715.62 307.97 715.2 303.27 713.97 298.71 714.17 293.86 711.77 289.56 710.26 285.1 710.96 280.26 709.69 275.92 706.86 271.96 706.06 267.51 705.8 262.91 703.88 258.73 703.51 254.16 702.79 249.68 702.35 245.13 699.75 241.1 698.93 236.63 699.13 232.19 697.54 228.17 697.38 223.82 695.44 219.89 694.53 215.7 693.84 211.46 693.14 206.71 690.36 202.43 690.07 197.59 691.53 192.93 690.92 188.26 692.95 184.19 696.32 181.11 697.56 176.31 701.31 173.59 705.86 172.54 710.13 171.61 714.34 169.43 718.68 167.38 723.34 166.88 728.05 167.04 732.73 167.32 737.29 165.66 741.71 166.69 746.11 165.17 750.47 166.41 754.86 166.61 759.24 166.78 763.56 167.66 768.02 167.43 772.35 168.18 776.67 169.03 780.92 170.2 785.14 171.42 789.11 173.55 793.4 174.38 797.76 175.08 801.82 177.05 806.52 177.26 810.76 178.77 814.17 182.2 818.29 183.91 822.46 185.57 826.91 186.82 831.03 188.76 834.34 191.93 837.83 194.78 841.79 197.06 845.29 199.96 847.07 204.53 850.79 207.14 854.29 210.11 854.92 215.03 858.51 218.06 859.59 222.49 863 225.86 864.62 230.07 864.26 234.86 865.34 239.14 865.83 243.52 867.43 247.75 867.87 252.17 868.08 256.51 867.19 260.79 866.45 265.03 864.96 269.07 864.62 273.47 862.27 277.18 861.29 281.47 859.35 285.36 855.9 288.3 853.5 291.99 852.71 296.91 848.16 299.02 845.99 302.96 842.93 306.2 840.72 310.13 838.57 314.1 834.85 316.85 831.72 319.85 829.71 323.66 828.28 327.76 827.87 332.13 825.04 335.64 825.92 339.99 825.03 344.14 826.73 347.94 826.53 352.39 827.92 356.47 831.16 359.41 835.29 363.14 839.23 366.96 841.82 371.05 845.7 373.56 850.39 374.52 854.01 377.36 858.74 378.11 861.86 381.9 865.94 383.89 870.56 384.83 874.44 387.19 878.56 389.11 882.1 392.12 886.15 394.15 889.7 397.1 894.6 397.64 898.5 399.99 901.47 403.83 905.43 406.03 909.85 407.58 913.95 409.65 916.53 413.81 920.55 416.01 923.42 419.7 928.08 421.37 930.53 425.45 933.8 428.65 936.58 432.29 939.25 435.99 942.34 439.39 945.53 442.81 948.01 445.25 951.94 445.21 952.26 441.54"/>
    </g>
  </g>
  <g>
    <path class="cls-1" d="M1247,512.97l-2.42-3.89-2.7-3.78.43-5.1-1.7-4.19-3.07-3.64-1.78-4.17-1.5-4.28-1.41-4.32-1.93-4.12-2.1-4.06-1.85-4.16-1.08-4.44-.09-4.81-2.58-3.88-1.88-4.14-1.19-4.4-1.1-4.43-2.17-4.04-1.25-4.38-2.13-4.05-1.89-4.14-.69-4.59-2.24-4.01-1.32-4.35-.41-4.71-1.97-4.11-2.87-3.75-1.69-4.21-1.52-4.28-1.98-4.09-1.35-4.35-1.8-4.16-2.75-3.74-.48-4.76-3.04-3.58-1.5-4.3-1.83-4.15-1.54-4.31-2.36-3.88-3.16-3.43-2.53-3.75-1.31-4.47-2.23-3.94-1.76-4.25-3.59-3.07-2.2-3.98-3.24-3.24-2.31-3.91-2.34-3.91-3.98-2.58-1.95-4.26-2.99-3.4-3.04-3.36-3.14-3.27-3.24-3.17-2.81-3.66-3.68-2.7-3.05-3.36-4.29-1.89-2.67-3.81-4.48-1.68-3.58-2.73-2.15-4.4-4.63-1.52-2.98-3.44-4.11-2.13-3.23-3.16-2.93-3.52-2.74-3.74-4.4-1.76-3.74-2.53-2.26-4.36-3.9-2.35-4.59-1.46-2.55-4.05-4.46-1.57-3.27-3.13-3.54-2.78-3.48-2.87-4.27-1.72-2.84-3.87-3.84-2.37-4.35-1.52-3.81-2.4-3.71-2.6-4.19-1.7-4.15-1.75-3.75-2.62-4.44-1.07-3.63-3.12-4.49-.87-4.78.24-4.29-1.2-4.04-2.47-4.56-.14-4.5-.11-4.38-1.35-4.53.91-4.45.24-4.55-1.46-4.49.5-4.38,1.17-4.43.77-4.3,1.32-4.45.81-4.49.78-4.29,1.49-4.2,1.77-3.8,2.58-3.7,2.61-3.72,2.5-3.9,2.28-3.42,2.93-3.01,3.34-2.99,3.34-3.31,3.17-1.65,4.28-3.44,3.33-1.43,4.37v4.76s-2.3,4.06-2.3,4.06l-1.6,4.37-.33,4.55,1.71,4.7-2.27,4.37-.17,4.56,2.05,4.47-.67,4.55-.11,4.57,1.68,4.32,1.58,4.27-.67,4.78,1.48,4.3,2.09,4.08.77,4.5.81,4.53,3.29,3.56,1.53,4.24,1.62,4.21,1.06,4.5,3.04,3.53,2.05,4.02.78,4.72,2.77,3.64,3.64,3.11.39,5.03,2.7,3.66,4.05,2.8,1.48,4.4,1.97,4.11,2.54,3.74,2.49,3.77,2.05,4.07,3.02,3.42,3.89,2.83,1.85,4.21,2.59,3.71,1.59,4.39,2.44,3.81,2.67,3.66,2.89,3.51,2.63,3.67,2.53,3.75,2.59,3.68,2.02,4.1,2.68,3.87-.75,5.13,2.8,3.86,1.28,4.39,1.81,4.21-.09,4.8,3.14,3.81,1.57,4.3.16,4.73.99,4.48,3.04,3.82.02,4.81,2.32,4.03,1.94,4.14.38,4.75,1.58,4.3,2.34,3.97,2.01,4.1,2.94,3.61.91,4.71,3.33,3.32,2.57,3.74,1.39,4.62,3.52,3.07,2.63,3.76,4.04,2.44,2.31,4.19,3.86,2.29,3.69,2.4,4,1.85,3.68,2.4,3.6,2.83,4.14,1.73,4.27,1.46,4.45.72,4.5.13,4.46-.96,4.57,1.39,4.11-2.41,4.69.02,4.21-1.87,2.47-4.16,2.9-3.16,2.02-3.77,1.98-3.95,2.13-4.07.51-4.47-.1-4.5,1.37-4.41-2.06-4.46-.42-4.4,1.85-4.57-2.09-4.29.13-4.48-1.25-4.32.41-4.55-1.55-4.26.9-4.65-2.27-4.15-.49-4.43-.69-4.4-1.05-4.34-.25-4.47.76-4.6-.61-4.39-2.04-4.26.85-4.51-.69-4.4-.46-4.56,2.3-3.97,3.88-2.23,3.58-2.33,4.03-1.45,4.07,1.27,3.67,1.97,4.2,1.69,4.13,2.32,1.78,4.4,2.07,4.01,3.73,2.92,1.2,4.52,3.1,3.39.72,4.7,2.28,3.85,2.11,3.95,3.39,3.33.46,4.77,3.21,3.44.88,4.56,1.93,4.06,2.55,3.75,2.59,3.72,2.52,3.72,1.04,4.53,2.56,3.69,2.85,3.45,2.08,3.39,1.98,3.44,2.35,3.21,1.02,4.72,4.07,2.74,1.33,4.66,3.43,3.11,2.67,3.71,3.29,3.17,2.93,3.51,3.49,2.95,3.49,2.92,3.9,2.44,1.99,4.71,4.23,2.02,3.05,3.56,4.66,1.3,4.1,2.02,2.98,3.86,4.82.71,3.65,2.83,3.95,2.35,4.81.16,3.79,3.05,4.8-.74,4.24,2.91,4.46-2.49,4.25-.61,3.68-2.12,4.13-2.44.22-4.82,2.09-4.22-1.61-4.53-.29-4.44-.56-4.46.68-4.83-3.42-3.75-1.03-4.42-1.49-4.27.18-5-2.55-3.91ZM1064.53,335.45l-3.72,1.95-3.09,3.01-3.94,1.62-4.44-1.29-3.6,2.56-3.32,1.42-3.59,1.34-3.21,2.35-4.75-.95-4.05,1.86-4.33.8-4.18-1.5-4.77-1.04-3.87-2.95-3.81-2.87-3.87-3.13-1.12-4.94-2.2-4.27-1.36-2.1.69-2.4-2.14-3.89.15-4.46-1.36-4.03-2.5-4.55,2.01-4.87.15-4.71.46-5.09,3.27-4.04,4.39-1.62,4.33-1.23,4.41,1.01,4.31.36,4.43.53,3.72,3.1,4.49,1.52,3.75,2.8,3.74,2.8,3.34,3.3,3.21,3.3,4.2,2.05,3.75,2.63,3.08,3.51,3.75,1.97,3.74,2.08,2.63,3.44.8,5.13,1.93,4.59-1.53,4.89Z"/>
    <g>
      <polygon class="cls-1" points="1060 332 1057.34 334.35 1053.97 336.43 1049.89 336.68 1046.23 339.37 1041.8 339.07 1038.2 341.26 1034.19 342.42 1030.95 345.7 1025.58 345.57 1020.3 346.49 1015.21 344.76 1011.21 343.26 1009.29 339.12 1004.96 337.4 1003.18 333.5 1002.4 328.57 1000.8 324 999.48 319.33 997.39 315.06 997.35 310.33 997.87 305.7 996.1 300.93 999.16 297.24 1001.88 294.28 1005.07 291.77 1009.21 291.23 1013.67 290.34 1018.16 291.14 1022.05 293.49 1025.78 295.92 1029.38 298.5 1033.65 300.84 1036.57 304.91 1041.66 306.29 1044.51 310.41 1048.65 312.96 1051.53 317.13 1056.89 319.18 1059.92 323.8 1062.71 328.43 1061.25 333.82 1061.57 336.43 1064.35 339.8 1068.27 337.3 1070.28 332.8 1070.15 327.87 1068.01 323.53 1066.55 318.92 1062.14 316.54 1059.8 312.34 1055.08 311.03 1052.4 307.03 1048.58 305.41 1045.81 302.49 1043.2 299.37 1040.35 296.57 1036.31 294.24 1032.42 291.74 1028.63 289.1 1024.69 286.6 1020.03 285.79 1015.62 284.74 1011.13 283.24 1006.55 284.64 1002.08 285.2 997.47 286.22 993.45 288.94 991.37 293.11 989 297.17 988.2 301.78 989.78 306.32 989.61 310.85 991.59 315.03 992.5 319.41 993.8 323.69 993.29 328.53 995.54 332.31 997.43 336.14 999.85 339.63 1002.32 343.05 1004.83 346.66 1008.57 348.75 1012.24 350.91 1016.6 351.09 1020.53 352.46 1024.69 352.74 1030.05 351.3 1035.35 350.39 1039.28 349.85 1043.26 348.92 1046.36 346.65 1050.77 345.34 1055.36 344.57 1060.02 343.68 1064.35 341.52 1066.25 337.04 1068.09 333.64 1064.73 330.61 1060 332"/>
      <polygon class="cls-1" points="1250.11 513.1 1249.28 508.54 1245.59 505.2 1244.09 500.92 1244.08 496.04 1242.65 491.76 1239.71 488.06 1238.92 483.51 1237.3 479.3 1233.9 475.75 1233.26 471.16 1231.61 466.95 1230.06 462.71 1229.02 458.27 1227.79 453.9 1225.48 449.93 1223.62 445.79 1222.74 441.3 1221.87 436.8 1218.14 433.35 1218.41 428.44 1215.3 424.77 1214.95 420.08 1213.63 415.75 1212.29 411.43 1210.5 407.28 1208.77 403.11 1207.5 398.76 1205.7 394.62 1203.32 390.71 1202.61 386.12 1200.73 382.01 1197.14 378.66 1195.3 374.55 1194.62 369.92 1192.91 365.73 1189.96 362.15 1187.67 358.26 1187.39 353.35 1184.14 349.96 1182.38 345.8 1181.04 341.38 1176.98 338.5 1174.81 334.65 1173.48 330.27 1170.82 326.71 1168.15 323.16 1165.93 319.3 1163.86 315.33 1160.03 312.65 1157.88 308.72 1154.78 305.54 1153.21 301.05 1149.89 298.01 1146.38 295.19 1143.47 291.79 1140.23 288.73 1136.57 286.14 1133.71 282.66 1130.29 279.79 1126 277.98 1122.59 275.14 1119.91 271.47 1116.19 269.03 1113.19 265.75 1109.31 263.48 1105.47 261.17 1103.75 256.39 1099.67 254.37 1096.81 250.92 1093.29 248.25 1090.1 245.21 1086.03 243.21 1082.33 240.8 1079.53 237.27 1075.13 235.73 1071.98 232.65 1069.28 228.98 1065.46 226.26 1061.82 223.3 1057.82 220.83 1053.38 219.02 1049.68 216.17 1046.21 212.91 1042.62 209.8 1038.14 208.16 1033.87 206.21 1030.16 203.22 1025.43 202.21 1021.27 200.09 1017.06 198.07 1012.95 195.73 1008.16 195.19 1003.96 192.88 999.43 191.57 994.51 192.08 990.29 189.09 985.35 190.49 980.81 188.77 976.08 189.56 971.42 189.87 966.76 189.56 962.08 189.68 957.35 189.64 952.93 191.54 948.25 190.79 944 192.1 940.09 194.45 936.03 196.14 931.19 195.92 927.92 199.44 923.12 199.77 920.47 204.01 916.42 205.8 912.87 208.37 910.06 211.8 905.43 213.39 903.59 217.67 899.94 220.48 897.35 224.12 895.08 227.98 893.96 232.36 892.73 236.62 891.95 240.96 890.83 245.2 889.27 249.44 889.24 254.19 888.21 258.86 889.29 263.63 889.67 268.33 888.21 273.11 890.08 277.7 891.35 282.26 892.3 286.83 891.58 291.56 893.68 295.68 893.59 300.37 895.64 304.46 897.37 308.61 899.82 312.48 900.56 317.01 902.33 321.14 904.29 325.18 906.48 329.11 907.7 333.53 910.6 337.08 911.88 341.5 914.65 345.1 917.77 348.48 919.15 352.89 922.48 356.12 924.1 360.41 926.27 364.16 928.12 368.11 931.97 370.75 934.14 374.5 934.84 379.25 939.2 381.52 940.65 385.76 943.96 388.74 944.84 393.4 948.12 396.42 950.35 400.02 953.72 402.85 954.9 407.18 958.15 410.1 960.51 413.63 961.94 417.82 963.96 421.55 964.87 425.77 967.6 429.29 968.21 433.94 970.67 437.95 971.69 442.45 972.49 447.01 973.73 451.43 977.02 455.23 977.23 459.95 979.39 464.09 981.05 468.36 982.14 472.82 982.57 477.51 983.93 481.9 986.16 485.97 987.45 490.4 989.6 494.47 991.05 498.77 992.65 503.03 995.28 506.77 996.77 511.13 999.76 514.62 1002.07 518.53 1004.4 522.46 1007.1 526.14 1010.4 529.32 1014.16 531.98 1017.66 534.82 1021.45 537.26 1024.04 541.38 1028.34 543.07 1032.74 544.39 1036.4 547.17 1040.44 548.89 1044.52 550.61 1049.04 550.57 1053.39 550.81 1057.61 552.32 1062.02 553.02 1066.27 551.09 1070.55 550.62 1075.1 550.61 1079.32 549.1 1083.05 546.58 1086.28 543.47 1089.33 540.13 1090.12 535.59 1091.7 531.47 1093.63 527.36 1092.66 522.7 1094.86 518.49 1095.24 514.03 1093.8 509.58 1094.89 505.1 1095.01 500.61 1093.35 496.29 1093.9 491.74 1093.65 487.28 1090.86 483.2 1091.08 478.65 1090.01 474.32 1090.46 469.74 1089.4 465.42 1089.3 460.96 1087.62 456.75 1087.04 452.36 1086.35 447.99 1084.49 443.76 1084.36 439.29 1084.12 434.84 1084.5 430.39 1084.44 425.32 1088.32 422 1091.6 418.38 1095.4 417.64 1098.29 417.41 1101.95 419.3 1104.95 421.91 1107.88 426.81 1111.96 430.73 1114.2 434.83 1117.06 438.54 1119.43 442.54 1121.73 446.59 1122.87 451.21 1125.38 455.14 1127.95 459.34 1128.42 464.54 1131.7 468.38 1133.3 473.05 1135.53 477.42 1138.31 481.51 1141.1 485.05 1143.14 489.01 1145.03 493.07 1147.94 496.51 1149.77 500.64 1152.06 504.5 1153.34 508.96 1156.37 512.33 1158.97 515.93 1162.37 518.93 1164.64 522.76 1167.45 526.17 1169.19 530.58 1172.66 533.46 1175.58 536.85 1179.79 538.88 1182.29 542.75 1185.48 545.89 1188.83 548.86 1192.67 551.2 1197.32 552.34 1200.05 556.44 1203.99 558.79 1208.19 560.69 1212.28 562.74 1216.51 564.46 1219.89 568.05 1224.41 569.2 1228.93 570.15 1232.98 572.78 1237.69 572.85 1242.29 573.11 1246.9 572.28 1251.85 572.03 1254.91 568.1 1258 564.66 1260.02 560.4 1260.17 555.69 1259.97 551.09 1261.1 546.34 1259.66 542.11 1258.56 537.88 1258.14 533.47 1255.64 529.66 1255.26 525.18 1254.01 520.97 1252.58 516.81 1250.72 512.83 1247.13 510.1 1243.72 509.85 1242.42 513.5 1244.77 517.42 1245.23 522.09 1248.29 525.8 1249.23 530.28 1250.24 534.71 1250.75 539.21 1251.75 543.61 1251.81 548.1 1252.06 552.65 1249.96 556.64 1247.99 560.69 1243.59 561.74 1239.47 562.54 1234.99 563.95 1230.36 563.68 1225.94 562.41 1222.26 559.22 1217.83 558.11 1213.69 556.27 1209.59 554.01 1205.12 552.34 1201.78 548.86 1197.59 546.68 1193.69 544.06 1190.53 540.49 1186.75 537.71 1182.68 535.21 1180.22 531 1175.7 528.83 1173.17 524.77 1170.15 521.17 1168.25 516.62 1164.78 513.26 1162.2 509.26 1159.94 505.05 1157.17 501.16 1155.63 496.52 1151.1 493.75 1149.51 489.69 1146.98 486.22 1144.93 482.46 1144.93 477.71 1141.28 474.75 1140.22 470.55 1138.23 466.13 1136.68 461.51 1134.9 457 1132.7 452.69 1129.53 448.88 1127.69 444.4 1124.8 440.98 1123.66 436.59 1120.79 433.19 1118.18 429.67 1116 425.86 1114.04 421.8 1110.85 418.98 1107 417.01 1104.67 413.1 1100.4 412.13 1096.36 411.41 1092.1 410.43 1087.67 411.05 1084.63 414.51 1079.87 415.73 1077.64 419.79 1077.44 424.15 1077.46 428.22 1076.02 432.39 1075.96 436.57 1077.25 440.79 1079.2 444.88 1077.66 449.41 1079.16 453.54 1079.76 458.14 1081.58 462.54 1081.42 467.27 1082.89 471.73 1084.02 476.26 1084.76 480.85 1084.8 485.53 1084.87 490.2 1085.65 494.99 1085.38 499.87 1087.01 504.65 1086.23 509.53 1085.68 514.35 1086.66 519.32 1084.88 523.99 1082.49 527.91 1082.06 532.43 1079.75 536.22 1077.1 539.9 1073.61 542.94 1069.13 544.11 1064.86 544.93 1060.58 545.67 1056.29 544.54 1051.78 546.13 1047.71 544.13 1043.88 541.92 1039.4 541.76 1034.96 540.91 1031.18 538.6 1028.68 534.5 1024.9 532.39 1021.71 529.49 1017.41 527.62 1015.11 523.81 1012.13 520.62 1010.11 516.41 1008.24 512.18 1004.16 509.36 1002.26 505.15 999.95 501.19 998.49 496.8 996.37 492.75 993.99 488.78 992.32 484.5 992.24 479.67 989.91 475.64 987.58 471.6 987.82 466.72 984.65 462.91 984.93 458.07 982.56 453.89 982 449.17 981.33 444.47 978.24 440.53 976.89 436.06 975.22 431.69 973.31 427.41 971.92 424.02 972.58 419.76 970.18 415.58 966.59 412.31 965.44 408.11 962.51 405.09 960.68 401.32 956.93 398.87 955.63 394.75 951.79 391.83 949.69 387.7 946.98 384 944.93 379.84 942.57 375.9 940.12 372.02 936.98 368.61 934.53 364.73 931.32 361.34 928.91 357.43 926.3 353.65 924.56 349.33 922.73 345.08 919.81 341.47 918.36 337.03 916.24 332.98 914.55 328.71 911.27 325.22 909.7 320.65 907.44 316.4 906.67 311.54 903.96 307.44 901.65 303.14 900.9 298.33 898.76 293.91 899.01 288.91 898.5 284.37 897.27 279.94 896.11 275.44 897.99 270.76 897.69 266.25 896.44 261.67 898.15 257.19 896.37 252.49 897.88 248.11 898.91 243.74 899.13 239.09 902.48 235.55 903.72 231.22 906.1 227.44 907.21 222.72 911.5 220.37 914.71 217.3 918.21 214.58 920.73 210.55 925.1 208.99 928.86 206.6 932.57 203.63 937.48 203.39 941.7 201.6 945.86 199.44 950.57 199.27 955.09 198.49 959.33 195.69 964.03 195.87 968.62 194.57 973.3 196.69 977.96 195.39 982.61 195.54 987.08 197.18 991.84 197.03 996.33 198.34 1000.81 199.63 1005.19 201.24 1009.31 203.49 1013.63 205.15 1018.14 206.42 1022.85 207.36 1027.2 209.14 1030.65 212.59 1034.88 214.57 1038.46 217.66 1043.09 219.05 1045.94 222.94 1050.5 224.25 1054.06 227.04 1058.23 229 1060.83 233.06 1065.61 234.25 1068.84 237.47 1071.18 241.79 1076.21 242.74 1079.39 245.98 1083.08 248.63 1086.62 251.44 1088.6 256.08 1092.83 258.09 1095.67 261.73 1098.73 264.75 1102.25 267.23 1106.25 269.15 1108.7 272.87 1112.15 275.46 1116.2 277.33 1118.98 280.7 1121.91 283.92 1125.08 286.94 1129.05 289.03 1132.44 291.81 1136.02 294.4 1137.76 298.9 1142.34 300.51 1144.66 304.35 1147.23 307.92 1150.74 310.68 1152.45 315.13 1155.42 318.57 1159.63 321.12 1161.39 325.47 1163.1 329.79 1167.23 332.54 1167.77 337.57 1170.55 341.19 1174.13 344.38 1176.68 348.19 1177.89 352.72 1180.46 356.51 1182.7 360.49 1184.66 364.61 1186.64 368.71 1186.96 373.58 1188.9 377.69 1192.48 381.08 1194.12 385.35 1194.48 390.13 1197.17 393.94 1199.09 398.08 1201.06 402.2 1202.36 406.58 1203.75 410.92 1204.69 415.44 1206.4 419.65 1208.31 423.8 1211.12 427.61 1212.35 432.01 1213.34 436.5 1215.27 440.65 1216.16 445.18 1217.55 449.52 1219.47 453.67 1219.86 458.39 1222.13 462.42 1225.1 466.17 1225.31 470.96 1227.44 475.04 1230.05 478.93 1230.72 483.58 1231.8 488.08 1233.77 492.23 1236.16 496.21 1238.05 500.37 1239.5 504.74 1240.28 509.39 1243.86 512.87 1246.36 515.7 1249.92 517.19 1250.11 513.1"/>
    </g>
  </g>
  <g>
    <polygon class="cls-1" points="208.43 248.4 212.81 249.85 216.31 253.05 220.81 254.31 223.43 258.2 227.92 260.15 229.48 264.67 231.44 268.69 234.42 272.24 237.01 276.14 238.16 280.58 237.72 285.38 239.68 289.59 240.12 294.11 241.54 298.51 242.14 303.04 240.85 307.68 242.94 312.13 242.67 316.69 243.1 321.25 241.8 325.78 242.71 330.35 241.71 334.87 241.88 339.42 241.49 343.95 240.6 348.45 239.88 352.94 240.42 357.53 239.68 362.01 240.3 366.63 239.13 371.07 238.63 375.58 238.59 380.14 236.46 384.46 237.14 389.11 235.63 393.5 235.76 398.09 234.5 402.5 234.36 407.05 233.37 411.5 233.16 416.05 233.68 420.69 232 425.06 231.62 429.59 231.88 434.21 230.05 438.57 230.04 443.15 230.56 447.79 229.81 452.29 227.81 456.66 227.47 461.21 227.52 465.8 227.51 470.37 225.86 474.81 225.69 479.37 226.7 484.01 226.33 488.55 226.98 493.14 224.81 497.6 225.12 502.18 226.59 506.76 226.24 511.3 226.54 515.83 224.59 520.4 225.13 524.94 226.07 529.44 225.43 534.03 225.3 538.62 228.02 542.91 226.89 547.62 228.36 551.99 230.03 556.29 228.62 561.21 230.4 565.48 232.17 569.71 232.97 574.22 233.78 578.8 237.71 582.07 238.09 586.91 241.79 590.02 244.66 593.59 248.27 596.49 252.79 597.56 257.35 599.23 262.2 598.69 266.34 596.88 270.41 595.01 275.04 593.92 278.35 590.69 281.53 587.44 283.85 583.48 287.23 580.48 289.95 576.9 292.48 573.17 293.33 568.55 296.06 564.91 297.13 560.51 298.7 556.34 300.17 552.12 301.48 547.86 302.55 543.51 304.59 539.41 305.64 535.04 307.93 530.91 306.39 526.05 308.47 521.84 309.67 517.47 309.36 512.88 310.3 508.47 311.14 504.03 311.27 499.52 310.68 494.96 312.59 490.59 313.17 486.1 313.19 481.59 313.34 477.08 311.55 472.5 312.29 468.03 311.73 463.51 311.98 459.02 312.91 454.54 312.81 450.03 313.01 445.53 313.52 441.03 312.61 436.52 313.41 432.03 312.96 427.52 313.65 423.02 312.41 418.52 313.25 414.02 313.48 409.54 313.61 405.05 313.82 400.72 312.51 396.44 313.24 392.06 312.89 387.72 313.39 383.33 312.21 379.05 313.17 374.65 311.25 370.25 312.18 365.64 311.87 361.12 310.33 356.73 310.11 352.23 309.09 347.79 308.63 343.3 308.71 338.75 309.77 334.12 306.96 329.8 307.41 325.23 307.14 320.71 307.43 316.17 306.31 311.64 306.48 307.09 307.19 302.57 307.09 298 308.21 293.55 308.28 288.95 310.52 284.77 312.2 280.58 313.42 276.27 314.28 271.74 315.66 267.31 319.18 264.12 322.14 260.74 324.04 256.39 327.14 252.99 330.84 250.26 334.85 248.04 338.54 245.31 342.54 243.06 347.49 243.15 351.17 239.87 355.79 239.57 359.85 237.3 364.53 237.14 368.83 235.7 373.35 234.75 377.72 233.32 381.42 230.47 385.24 227.97 388.9 225.29 392.98 223.26 396.89 220.91 400.28 217.88 402.75 213.89 407.18 211.93 409.44 207.87 413.42 205.19 414.86 200.66 416.3 196.32 418.16 192.29 420.36 188.34 421.71 184.05 421.91 179.54 422.22 175.1 422.55 170.61 422.81 165.95 419.95 162.08 418.85 157.7 416.48 153.88 413.56 150.48 411.32 146.31 406.75 144.78 403.09 142.24 399.74 138.86 394.87 138.83 391.08 135.87 386.36 136.16 382.2 133.68 377.64 133.26 373.05 133.81 368.51 134.81 363.91 132.91 358.78 134.77 353.38 134.7 348.62 137.58 343.82 136.53 339.49 137.8 335.02 138.3 330.57 138.88 326.25 140.31 321.83 141.08 317.59 142.97 312.95 142.47 308.6 143.64 304.29 145.09 299.86 145.79 295.43 146.49 291.07 147.61 286.57 148 282.16 148.82 277.51 148.43 273.12 149.42 268.76 150.55 264.52 152.26 260.12 153.2 255.38 152.57 251.08 153.99 246.92 156 242.63 157.38 238.32 158.69 233.76 158.96 229.18 159.23 224.93 160.77 220.46 161.48 216.41 163.72 211.74 163.81 207.75 166.16 203.19 166.68 199.3 169.29 195.08 170.85 190.27 170.73 186.19 172.73 182.09 174.61 177.96 176.43 173.64 177.77 169.23 178.92 165.5 181.65 161.12 182.91 157.02 184.81 153.6 188.01 149.2 189.33 145.49 191.95 141.32 193.74 137.43 196.04 134.68 200.05 130.27 201.55 126.79 204.41 122.69 206.46 119.46 209.65 117 213.65 112.67 215.57 109.66 218.92 107.04 222.71 103.32 225.48 100.94 229.38 98.08 232.97 96.64 237.32 95.38 241.65 95.25 246.1 95.89 250.4 97.15 254.69 100.52 257.71 104.6 259.6 108.96 261 113.5 262.24 118.14 260.59 122.74 261.7 127.31 261.01 131.9 261.07 136.33 259.48 140.94 259.49 145.48 258.85 149.82 257.01 154.54 257.35 159.18 257.16 163.36 254.79 168.12 255.14 172.39 253.2 176.97 252.61 181.26 250.85 186.12 251.31 190.22 248.75 194.68 247.27 199.27 248.93 203.77 249.1 208.43 248.4"/>
    <polygon class="cls-1" points="206.83 251.84 211.29 252.91 214.94 255.82 218.86 258 222.32 260.87 225.23 264.29 226.69 268.65 229.37 272.17 230.94 276.29 232.18 280.51 235.31 284.22 234.96 288.89 237.26 292.99 235.48 297.74 238.34 301.88 238.18 306.38 237.36 310.88 238.42 315.29 237.02 319.75 236.73 324.17 237.48 328.61 238.55 333.09 238.34 337.52 238.41 342.08 235.96 346.48 237.91 351.15 236.81 355.62 236.3 360.13 235.29 364.59 234.52 369.07 235.11 373.69 233.78 378.11 233.26 382.62 234.03 387.27 232.15 391.61 231.6 396.11 232.91 400.84 230.38 405.09 231.23 409.77 229.9 414.18 229.58 418.71 229.54 423.28 227.88 427.64 227.37 432.15 227.76 436.77 227.24 441.28 225.14 445.6 226.51 450.33 225.81 454.82 224.82 459.27 222.95 463.64 224.64 468.37 223.55 472.82 222.39 477.27 221.75 481.77 222.86 486.4 221.61 490.95 222.03 495.61 220.12 500.15 222.03 504.86 221.4 509.46 221.29 514.08 221.21 518.7 220.48 523.34 220.35 527.98 222.2 532.52 222.34 537.14 223.08 541.69 223.7 546.26 222.59 551.08 223 555.72 224.83 559.77 226.32 563.84 225.62 568.48 228.11 572.25 228.25 576.78 230.78 580.45 232.6 584.36 234.72 588.11 237.11 591.67 238.99 595.59 241.95 598.78 245.65 602.06 250.54 602.79 255.22 603.48 259.96 603.27 264.63 602.39 268.45 599.33 273.31 598.68 277.52 596.5 280.38 592.5 284.18 589.78 287.42 586.42 291.07 583.32 293.4 579.2 295.59 575.04 297.79 570.91 300.21 566.87 301.22 562.21 304.24 558.34 305.2 553.7 307.34 549.46 306.7 544.44 308.46 540.09 308.69 535.37 310.97 531.09 312.9 526.68 312.33 521.85 312.23 517.12 312.63 512.48 314.46 508 315.85 503.44 314.11 498.6 314.34 493.95 315.28 489.34 315.73 484.69 315.84 480.02 316.61 475.4 317.75 471.02 317.63 466.59 317.2 462.16 317.47 457.75 316.07 453.3 316.1 448.89 317.17 444.49 317.79 440.08 318.62 435.67 318.44 431.26 318.51 426.84 317.51 422.42 318.72 418.01 316.71 413.59 316.79 409.18 317.61 404.77 317.67 400.2 317.29 395.65 317.36 391.08 317.16 386.51 316.43 381.99 316.96 377.38 316.47 372.84 316.31 368.55 315.04 364.35 315.23 360.03 315.78 355.67 314.52 351.49 312.51 347.39 312.74 343.06 311.66 338.86 313 334.44 312.94 329.91 313.02 325.38 312.14 320.92 310.29 316.48 310.36 311.93 311.79 307.41 310.98 302.86 311.09 298.31 312.96 293.98 312.39 289.32 313.95 285.02 314.2 280.36 316.59 276.38 318.78 272.43 320.21 268.06 323.61 264.9 325.39 260.33 329.41 257.67 333.4 255.22 335.96 250.7 340.07 248.24 345.04 247.7 349.3 245.79 353.57 243.6 358.08 242.7 362.52 241.52 367.11 240.7 371.62 239.57 375.29 236.35 379.51 234.58 384.42 234.05 387.45 230.01 391.43 227.76 395.94 226.63 399.56 224.12 403.05 221.4 405.32 217.37 408.49 214.39 410.75 210.59 415.07 208.47 417.85 205.01 419.61 200.9 422.27 197.3 422 192.42 425.29 188.92 425.84 184.5 427.43 180.26 426.71 175.78 426.54 171.42 425.12 167.25 424.03 163.13 422.37 159.22 422.21 154.52 420.24 150.54 417.35 147.17 414.67 143.62 410.32 141.91 407.68 138.16 403.6 136.41 398.84 135.34 394.85 132.43 389.86 132.54 385.53 129.99 380.69 129.94 375.99 128.29 371.14 128.94 366.45 129.86 361.71 129.97 356.96 130.33 352.45 131.93 347.81 132.82 343.02 133.08 338.81 135.93 334.18 137 329.62 136.88 325.06 136.68 320.78 137.95 316.54 139.52 312.06 139.67 307.74 140.84 303.42 142.01 298.73 140.79 294.53 142.63 289.96 142.19 285.76 144.12 281.54 145.79 276.85 144.66 272.41 145.1 268.29 147.29 263.64 146.64 259.55 148.86 255.2 149.74 251.06 151.58 246.47 151.29 242.06 151.92 238.08 154.36 233.51 154.33 229.15 155.21 225.2 157.58 220.96 158.86 216.29 158.71 212.03 159.99 207.81 161.37 203.47 162.41 199.3 163.95 195.51 166.54 190.93 166.98 187.16 169.57 182.76 170.88 179.07 173.85 174.72 175.27 170.29 176.54 166.44 179.08 162.51 181.39 158.31 183.18 154.18 185.1 149.53 186.14 145.48 188.29 141.62 190.77 138.8 194.87 134.88 197.18 130.96 199.52 126.41 201.01 123.03 204.16 118.93 206.35 116.38 210.11 112.43 212.17 110.15 216.13 106.19 218.27 104.08 222.26 99.7 224.23 97.42 228.04 95.97 232.28 93.09 235.69 93.24 240.66 92.3 244.98 90.55 249.48 91.5 254.12 93.84 258.29 97.24 261.74 102.32 261.83 106.65 262.93 111.05 265.09 115.73 265.7 120.36 263.48 125.04 264.09 129.64 264.66 134.25 264.89 138.61 262.95 143.31 263.69 147.68 262.11 152.3 262.08 156.57 260.15 161.15 259.82 165.54 258.55 170.33 258.6 174.63 256.6 179 254.92 183.59 254.1 188.2 253.48 192.71 252.26 197.35 251.5 201.96 252.9 206.36 253.95 210.63 251.95 211.27 247.96 210.03 244.89 205.82 244.91 201.71 243.56 197.47 243.42 193.51 245.84 189.38 245.36 185.61 246.89 181.59 247.5 177.31 249.32 172.86 250.46 168.3 251.16 163.59 250.76 159.44 252.98 154.77 252.67 150.49 254.34 145.94 254.48 141.63 256.2 137.07 256.21 132.63 257.09 128.1 257.1 123.89 257.78 119.6 256.8 115.35 258.18 111.02 258.21 107.32 255.46 103.71 253.88 99.32 251.7 97.95 247.03 98.7 242.37 98.86 237.66 101.32 233.65 103.94 229.89 107.09 226.76 108.85 222.4 112.22 219.44 116.35 217.4 119.39 214.12 123.44 212.09 126.45 208.69 130.15 206.22 134.17 203.9 138.31 201.78 141.29 197.79 145.43 195.66 150.1 194.51 153.43 190.93 157.76 189.2 162.5 188.32 165.68 184.34 169.96 182.64 174.69 181.97 179.12 180.7 182.95 177.97 186.82 175.24 191.23 173.87 195.81 173.01 200.37 172.18 204.28 169.41 209.01 169.13 212.97 166.34 217.69 166.14 222.1 164.89 226.5 163.55 231.05 162.84 235.31 160.99 239.85 160.01 244.39 159.08 248.98 158.4 253.57 157.71 258.32 157.89 262.8 156.68 267.25 155.26 271.91 155.04 276.24 152.88 280.79 151.97 285.64 153.01 290.18 152.08 294.69 150.95 299.1 149.18 303.59 147.98 308.29 148.05 312.83 147.56 317.23 146.12 321.7 145.19 326.53 146.34 330.84 144.46 335.13 142.63 340.05 143.86 343.91 141.35 348.36 141.31 352.14 138.57 356.42 137.67 360.94 138.8 365.17 138.46 369.42 138.71 373.69 137.79 377.97 137.99 382.34 138.33 386.54 139.69 390.73 140.86 394.65 142.76 399.02 143.61 402.4 146.47 406.47 148.22 409.82 151.06 411.58 155.25 413.96 158.73 417.89 161.68 417.09 166.57 418.7 170.75 418.62 175.2 419.08 179.72 419 184.36 416.47 188.35 414.06 192.17 412.37 196.3 410.64 200.51 409.07 205.02 404.84 207.43 402.77 211.76 398.82 214.06 395.97 217.63 391.39 218.9 387.37 220.78 384.12 223.93 380.55 226.67 376.56 228.65 371.86 228.94 367.5 230.53 363.51 233.36 358.79 233.98 354.77 236.86 349.72 236.48 345.32 238.2 341.5 241.22 337.2 243.04 333.33 245.63 329.19 247.38 325.89 250.32 322.1 252.78 320.62 257.36 317.93 260.75 314.05 263.44 312.09 267.44 311.22 271.9 310.19 276.23 307.07 279.86 306.63 284.37 304.73 288.53 305.86 293.22 304.12 297.48 303.92 301.93 303.4 306.36 303.1 310.91 303.63 315.46 304.56 319.98 304.12 324.53 303.86 329.1 303.88 333.66 305.64 338.07 304.98 342.68 305.21 347.22 306.82 351.63 306.08 356.26 306.67 360.76 308.27 365.17 307.54 369.79 308.62 374.27 308.09 378.85 308.42 383.23 308.68 387.62 310.51 391.93 309.77 396.38 310.02 400.79 310.87 405.18 310.29 409.6 310.85 414.29 309.75 418.97 309.73 423.66 308.79 428.34 310.44 433.03 309.86 437.72 309.9 442.41 308.48 446.98 308.04 451.56 308.36 456.15 308.99 460.75 309.14 465.34 308.06 469.89 308.69 474.51 308.89 479.11 307.32 483.62 308.8 488.31 307.33 492.81 307.43 497.42 307.86 502.08 305.53 506.45 305.89 511.11 305.64 515.71 304.67 520.22 303.95 524.68 302 528.92 301.33 533.37 301.77 538.07 299.93 542.29 299.2 546.77 297.05 550.84 296.53 555.42 295.37 559.84 293.21 563.85 291.53 568.09 287.64 571.06 285.62 575.06 283.78 579.3 281.46 583.33 277.38 585.75 274.42 589.42 270.35 591.68 266.18 593.71 261.37 593.5 257.09 595.79 252.8 593.77 249.29 591.81 244.97 590.19 243.7 585.83 242.37 581.75 239.51 577.95 236.63 574.03 236.51 569.1 234.37 565.03 233.52 560.58 232.85 556.1 230.61 551.92 230.25 547.38 230.08 542.83 229.32 538.36 230.94 533.7 228.17 529.35 228.86 524.79 229.28 520.26 228.81 515.75 228.3 511.23 229.98 506.74 230.09 502.27 229.23 497.76 229.1 493.26 231.16 488.9 231.49 484.44 230.01 479.85 231.09 475.43 231.27 470.95 231.29 466.46 231.91 462.01 232.92 457.61 231.85 452.99 233.54 448.67 232.86 444.08 234.55 439.77 235.26 435.34 235.05 430.8 237.28 426.57 235.5 421.83 236.43 417.43 238.66 413.19 238.53 408.66 240.07 404.34 239.87 399.8 240.63 395.37 241.17 390.93 241.94 386.5 242.52 382.06 240.82 377.37 242.72 373.07 243.83 368.67 242.23 364.03 243.39 359.64 244.19 355.16 243.51 350.57 246.05 346.2 245.7 341.63 244.92 337.05 244.49 332.5 245.33 328 246.57 323.48 244.65 318.95 245.42 314.41 245.16 309.89 244.3 305.41 244.82 300.83 244.26 296.33 243.49 291.78 242.67 287.24 240.99 282.9 241.24 278.08 238.68 274.05 236.44 270.03 235.81 265.27 232.9 261.64 230.69 257.56 226.9 254.85 223.06 251.84 219.78 247.66 214.59 246.97 209.76 246.1 206.46 246.35 205.77 249.9 206.83 251.84"/>
  </g>
  <g>
    <path class="cls-1" d="M673.55,554.37l-2.89-3.7-1.48-4.33-3.02-3.42-3.45-2.97-1.1-4.96-3.06-3.37-4.23-2.18-3.33-3.02-3.23-3.14-3.26-3.12-3.69-2.6-3.85-2.38-3.74-2.51-3.3-3.11-2.73-3.93-4.31-1.72-3.9-2.29-3.51-2.87-3.47-2.94-4.12-1.98-3.57-2.79-4.09-2.02-3.94-2.25-3.2-3.32-4.11-1.99-3.52-2.84-2.9-3.69-3.83-2.39-4.37-1.7-3.54-2.81-3.34-3.05-3.56-2.8-2.97-3.44-3.14-3.24-3.74-2.76-1.56-4.52-3.54-3.07-1.74-4.24-1.57-4.24-.68-4.46-.95-4.35-1.22-4.51.17-4.64,2.16-4.19,1.66-4.2,2.78-3.79,1.23-4.55,2.78-3.62,1.82-4.23,2.89-3.54,2.96-3.48,1.29-4.59,3.56-3.08,2.49-3.79,2.5-3.78,2.42-3.83,2.33-3.89,2.91-3.58,1.77-4.21,2.53-3.85.6-4.71,2.72-3.83-.13-4.82.92-4.4,2.83-4.03-1.16-4.76,1.07-4.42-.92-4.52.17-4.47.38-4.56.42-4.68-1.83-2.65-.93-4.4,1.21-4.76-1.55-4.32-2.79-3.91.21-4.77-2.92-3.71-1.23-4.33-1.79-4.12-1.84-4.12-3.16-3.33-1.11-4.67-2.74-3.61-3.6-2.89-2.87-3.46-2.8-3.56-3.59-2.76-3.58-2.72-3.05-3.41-4.11-1.99-2.95-3.79-4.27-1.7-4.75-.59-4.04-1.88-3.62-3.05-4.49-.79-4.45-.72-4.17-1.9-4.61.36-4.44-.26-4.38-1.92-4.53.08-4.27.96-4.28.64-4.16,1.24-4.24.91-4.52,1.06-4.25,1.7-4.25,1.71-4.04,2.28-4.13,2.05-4.27,1.66-4.48,1.07-4.32,1.51-4.25,1.72-4.36,1.39-4.58.7-4.07,2.25-4.82-.02-4.22,1.78-3.87,2.87-4.74.24-4.58.66-4.28,1.6-3.62,3.57-4.97-.39-4.34,1.42-3.68,3.35-4.65.63-4.68,1.24-3.89,2.97-3.83,2.9-4.95,1.05-3.41,3.04-2.67,3.71-3.38,3.03-3.12,3.44-.38,4.83-1.71,4.1-1.32,4.28-1.68,4.32.74,4.6-.17,4.49-1.47,4.57.91,4.5,2,4.34-1.69,4.76,1.03,4.44,2.62,4.16-.35,4.63.21,4.55.86,4.43.78,4.45.23,4.55,1.34,4.36,2.32,4.22-.19,4.62.62,4.49-.68,4.62.23,4.5.38,4.48.49,4.37.14,4.41v4.41s.11,4.42.11,4.42l.19,4.43,1.02,4.43-2.51,4.39,1.39,4.51-.18,4.51.4,4.51-1.56,4.49,1.81,4.54.15,4.51-1.34,4.47-.51,4.49,1.61,4.55-1.63,4.46.73,4.53.27,4.52-1.49,4.47-.31,4.51.42,4.53-.05,4.51.87,4.54-1.58,4.48,1.06,4.54.03,4.52-1.61,4.5.84,4.53-.48,4.52,1.25,4.52-1.42,4.52.76,4.51.27,4.51.61,4.5-.3,4.53-.99,4.56-.05,4.53-.03,4.54.44,4.51.71,4.49,1.46,4.41-1.27,4.66,2.11,4.33-.91,4.66.39,4.52,2.49,4.21.64,4.46.87,4.42.34,4.52-.12,4.64,1.23,4.36,1.6,4.26.02,4.67,3.22,3.79,1.55,4.22-.65,4.95,3.08,3.71.99,4.44,2.31,3.93.81,4.55,2.68,3.73.51,4.77,3.47,3.29,2.35,4.23,3.1,3.7,3.93,2.75,4.05,2.57,4.39,2.69,5.03.49,4.54-1.73,4.7.45,4.25-1.88,3.58-2.9,3.91-2.18,4.23-2.2,2.84-3.69,2.13-4.12,2.8-3.73,2.03-4.16.41-4.73.06-4.71,2.5-4.03,1.62-4.32-.68-4.76,1.99-4.3-.42-4.65,2.08-4.36.17-4.58.24-4.57-1.29-4.66,1.89-4.48-1.22-4.62,1.33-4.52.15-4.55-.54-4.57-.55-4.57-.42-4.56,1.38-4.52-.17-4.56-.26-4.57.58-3.5.93-4.45.53-4.54,2.65-4.03-.49-4.88,3.1-3.72,1.1-4.44,2.5-3.78,2.39-3.84,3.44-2.92,3.65-2.67,4.3-1.61,4.63-1.05,4.17,2.92,4.55.26,3.72,2.68,4.73.66,4.2,1.9,2.77,3.99,4.67,1.3,3.03,3.5,3.14,3.3,4.46,1.79,2.16,4.36,4.53,1.8,1.6,4.87,4.9,1.5,2.9,3.52,3.14,3.28,1.95,4.42,4.3,2.18,2.11,4.26,4.33,2.18,3.01,3.42,2.94,3.46,1.81,4.53,4.75,1.75,2.83,3.56,3.11,3.29,1.77,4.64,4.21,2.21,2.74,3.71,3.63,2.75,2.95,3.59,5.01.85,2.64,4.19,3.83,2.59,4.24,1.9,4.57,1.01,4.24,1.64,4.18,1.8,4.15,2.02h4.71s4.39,1.11,4.39,1.11l4.45.92,4.45,1.86,4.65.12,4.47-2.25,4.42-.83,4.62-.08,4.79-.25,4.13-2.22,3.8-2.71,2.99-3.59,3.08-3.28,2.45-3.76,2.78-3.58,1.66-4.21.65-4.49,1.96-4.22-.29-4.58.56-4.52-.2-4.54-.34-4.56-1.58-4.34-1.71-4.23-.89-4.46.16-4.88ZM491.59,359.85l-3.73-2.53-4.43-1.24-3.62-2.83-.91-4.81-3.64-3-1.84-4.09-.74-4.45-1.66-4.2,1.55-4.63-1.39-4.31-.2-4.47,1.96-4.1.92-4.32,2.75-3.46,2.48-3.81,2.1-4.19,4.17-2.36,2.97-3.43,3.3-3.25,4.64-.84,3.97-2.35,4.58.86,4.47-.28,4.99-.75,2.88,4.21,3.29,2.98,3.51,3.37,1.77,4.4.39,4.73.96,4.54-.59,4.71.61,4.56.97,4.58-1.22,4.64.67,4.43-1.1,4.29-1.56,4.12-2.64,3.52-3.15,2.96-2.53,3.65-3.51,2.7-4.29,1.21-3.93,2.04-4.24,1.6-4.51.19-4.46-.59Z"/>
    <g>
      <polygon class="cls-1" points="493.09 354.52 488.45 354.87 485.58 351.37 482.62 348.32 480.6 344.57 479.01 340.64 477.11 336.79 475.26 332.79 475.2 328.42 475.47 323.99 476.08 319.68 475.68 315.05 478.37 311.35 480.94 307.56 482.78 303.15 486.77 300.5 490.04 297.3 493.11 293.61 497.46 292.7 501.36 290.8 505.68 291.17 509.83 291.53 513.69 293.04 518.05 294.72 519.84 299.49 521.56 304.04 523.34 308.65 523.47 313.54 524.63 318.07 524 322.8 524.18 327.44 523.04 331.99 523.88 336.85 521.88 340.82 519.74 344.63 515.93 346.97 512.54 349.33 509.21 351.81 505.59 354.1 501.5 355.43 497.18 354.94 492.91 355.5 488.47 358.46 490.28 364.15 494.84 362.74 499.26 363.71 503.56 362.56 507.54 360.59 512.32 360.69 515.81 357.78 519.17 354.95 522.58 352.19 525.36 348.78 528.68 345.54 530.25 341.33 530 336.75 531.41 332.56 531.16 328.18 531.98 323.79 530.78 319.49 529.97 315.29 529.92 311.04 528.91 306.92 529.86 302.32 528.11 298.31 525.44 294.8 522.59 291.81 520.74 288.05 516.9 286.46 513.42 284.54 509.5 283.68 504.69 281.78 500.02 284.04 494.98 284.06 490.33 286.12 487.28 290.42 482.65 292.63 478.69 295.8 476.3 300.31 474.86 304.43 471.44 307.27 470.46 311.46 468.87 315.34 467.72 319.41 468.8 323.67 468.52 328.04 468.58 332.47 469.72 336.74 469.05 341.61 473 344.86 474.19 349.16 476.14 353.21 479.28 356.39 482.86 358.95 485.83 362.64 490.27 364.04 493.91 361.81 494.86 358.29 493.09 354.52"/>
      <polygon class="cls-1" points="676.22 553.43 675.87 548.7 673.42 544.85 669.77 541.86 668.19 537.51 665.99 533.48 662.87 530.19 658.17 528.49 656.35 523.95 653.11 520.84 648.28 519.17 645.29 515.39 641.97 511.96 637.59 509.88 633.36 507.68 630.52 503.52 626.46 501.07 622.09 499.07 618.7 495.94 615.33 492.76 610.56 491.72 606.88 489.01 603.19 486.29 599.92 482.96 595.48 481.38 591.73 478.77 588.88 474.87 584.81 472.72 580.19 471.26 577.96 466.69 574.18 464.13 569.44 462.63 566.8 458.72 563.93 455.12 560.74 451.88 557.79 448.42 555.54 444.47 552.66 440.95 549.18 437.52 548.45 432.83 547.56 428.62 548.49 424.34 548.99 420.24 549.76 416.16 550.76 412.08 552.42 408.19 554.49 404.49 556.72 400.65 558.91 396.77 560.44 392.45 564.94 390.1 566.23 385.62 568.8 381.98 570.84 378.01 574.48 375.06 575.21 370.28 577.25 366.35 580.51 363.1 582.95 359.36 583.37 354.62 586.57 351.22 587.45 346.78 588.56 342.5 591.17 338.67 592.44 334.39 592.77 329.92 593.32 325.51 592.69 321.04 594.22 316.42 592.82 311.84 592.26 307.25 593.24 302.45 591.83 297.93 591.72 293.55 589.73 289.5 590.18 284.95 588.34 280.94 586.8 276.88 584.67 272.75 583.22 268.35 582.21 263.66 580.18 259.44 577.97 255.28 575.22 251.47 572.12 247.94 568.33 245.02 566.49 240.41 562.07 238.26 559.69 234.04 556.28 230.85 551.49 229.46 547.8 226.73 543.91 224.31 540.21 221.54 536.61 218.45 532.3 216.7 527.81 215.46 523.82 212.82 518.8 213.49 514.31 212.7 510.16 209.77 505.37 210.89 500.83 209.97 496.24 210.65 491.48 209.96 486.97 211.59 481.99 211.09 477.89 213.94 473.36 215.24 468.93 216.86 464.67 218.91 460.12 220.27 455.22 220.7 450.84 222.39 446.93 225.45 442.1 225.86 437.82 227.86 433.69 230.31 429.08 231.33 424.2 231.54 419.77 233.13 415.44 235.03 410.75 235.8 406.21 237.1 402.13 239.77 398.11 242.5 393.24 242.62 388.6 243.49 384.7 246.48 379.87 246.87 375.91 249.56 371.07 249.94 367.02 252.2 363.05 254.57 360.11 258.41 355.48 259.94 353.28 264.03 349.55 266.68 347.04 270.39 345.52 274.61 344.41 278.9 343.56 283.2 341.31 287.16 340.93 291.57 341.03 295.98 340.71 300.56 340.6 305.16 341.21 309.73 339.99 314.47 342.34 318.84 341.31 323.65 342.81 328.09 343.25 332.7 344.42 337.18 344.96 341.76 346.15 346.28 347.22 350.83 348.75 355.31 347.16 360.28 348.84 364.74 348.38 369.47 350.44 373.95 351.34 378.57 349.81 383.31 351.62 387.96 350.74 392.48 350.2 396.99 351.76 401.53 349.94 406.03 351.67 410.57 349.22 415.05 351.52 419.61 351.02 424.13 350.89 428.65 349.14 433.13 350.64 437.68 349.14 442.17 350.69 446.73 350.43 451.25 350.1 455.76 348.19 460.23 350.33 464.81 349.79 469.32 349.61 473.84 347.48 478.31 348.73 482.86 347.8 487.36 348.05 491.89 347.07 496.44 349.25 501.05 347.28 505.59 347.09 510.16 347.47 514.74 348.46 519.32 348.57 523.89 348.35 528.46 347.73 533.04 349.01 537.58 348.91 542.15 348.8 546.73 347.51 551.36 347.69 555.94 349.96 560.38 350.49 564.92 349.89 569.54 349.03 574.21 349.79 578.74 350.66 583.25 352.2 587.66 352.93 592.17 353.94 596.63 354.07 601.23 355.03 605.8 356.59 610.25 356.47 615.06 358.26 619.44 358.93 624.09 360.1 628.62 361.21 633.17 363.36 637.39 365.5 641.58 366.74 646.08 368.61 650.35 370.61 654.47 371.4 659.12 373.63 663.14 375.91 667.1 378.32 670.97 380.23 675.37 384.07 678.12 387.76 680.96 391.91 683.18 396.83 682.49 401.17 684.44 405.72 682.94 410.6 684.8 414.49 681.37 418.87 680.23 423.41 678.95 426.6 675.49 430.69 673.65 433.71 670.55 435.51 666.57 436.6 662.34 438.47 658.63 439.82 654.68 443.3 651.46 442.51 646.39 444.45 642.18 445.63 637.73 447.13 633.34 448.23 628.84 447.83 624.13 449.19 619.65 449.64 615.06 448.68 610.38 450.3 605.86 450.51 601.25 448.77 596.6 450.87 592.04 449.54 587.4 450.39 582.84 450.18 578.4 449.68 573.96 450.85 569.54 450.95 565.11 450.27 560.61 450.71 556.17 452.96 552.04 452.03 547.04 453.35 542.46 455.22 538.05 458.19 534.16 458.35 528.97 461.6 525.33 465.34 522.6 466.74 521.97 467.68 519.81 469.7 520.09 470.55 519.14 471.14 520.74 473.08 518.46 474.63 518.94 478.76 519.59 482.71 520.9 486.13 523.3 489.55 525.52 493.88 526.34 497.46 528.98 501.24 531.34 504.8 534.01 507.08 538.18 510.16 541.33 514.11 543.54 517.71 546.16 519.59 550.55 523.64 552.72 525.81 556.79 529.64 559.22 532.79 562.32 536.04 565.29 539.51 568.37 542.16 572.23 545.23 575.69 547.86 579.57 551.77 582.22 554.96 585.56 558.19 588.87 561.31 592.27 565.67 594.43 567.89 598.76 571.01 602.19 575.42 604.22 578.59 607.67 582.24 610.58 585.56 614.02 589.78 616.14 594.01 618.17 598.21 620.24 602.32 622.51 607.01 623.32 611.03 626.11 615.74 626.72 620.21 628.42 625.11 627.12 629.69 628.1 634.34 627.33 639.05 628.48 643.73 629.03 647.95 626.8 652.04 624.8 656.11 623.01 660.71 622.2 665.1 620.57 667.36 616.09 670.24 613.14 673.38 610.36 675.83 606.96 677.65 603.18 679.73 599.47 681.85 595.62 682.4 591.33 682.31 586.96 682.63 582.66 681.01 578.44 680.57 574.24 680.93 569.88 680.65 565.55 680.37 561.15 678.95 557.05 677.65 552.93 673.55 551.04 668.97 551.51 669.48 555.83 670.85 560.27 671.34 564.95 672.31 569.46 673.39 573.97 673.67 578.61 673.84 583.22 674.14 587.86 672.75 592.33 671.9 596.82 670.18 601.04 668.77 605.53 665.49 608.86 661.56 611.3 658.37 614.63 654.85 618.32 650.03 619.43 645.44 621.25 640.42 620.2 635.68 620.1 630.99 619.5 626.26 619.6 621.3 620.41 616.66 619.16 612.49 616.45 607.7 615.76 603.22 614.08 599.58 610.76 594.81 609.55 591.16 606.47 586.7 604.53 583.53 600.87 580.2 597.49 576.15 594.91 573.52 590.82 569.14 588.49 566.58 584.38 563.83 580.45 558.96 578.54 555.67 575.16 553.73 570.73 550.41 567.63 546.61 564.98 543.67 561.52 540.6 558.17 537.9 554.46 535.06 550.87 530.72 548.79 527.57 545.52 525.49 541.13 520.76 539.53 517.51 536.37 515.15 532.18 511.7 529.02 508.18 525.93 503.6 524.16 499.94 521.3 495.61 519.47 492.57 515.4 488.37 513.15 483.68 512.21 479.16 510.54 474.35 512.37 469.55 510.89 465.2 512.93 460.63 514.66 457.77 518.61 454.86 522.26 453.12 526.63 451.15 530.77 449.64 535.11 446.39 538.88 444.77 543.3 444 547.97 442.73 552.53 443.7 557.41 441.77 561.9 442 566.63 442.85 571.36 441.37 575.98 442.75 580.69 441.05 585.35 441.62 590.03 440.26 594.68 440.9 599.37 441.46 604.06 440.8 608.71 440.06 613.44 440.33 618.25 439.7 622.98 438.26 627.6 439.33 632.6 438.52 637.34 436.49 641.79 434.31 646.03 433.4 650.6 432.52 655.27 429.99 659.26 427.98 663.52 425.47 667.58 421.03 669.2 418.21 672.58 413.88 673.35 410.1 675.67 405.79 677.11 401.52 675.03 396.86 673.63 391.77 672.75 388.86 668.47 384.69 665.46 382.15 661.23 379.03 657.27 378.1 652.26 376.53 647.6 373.35 643.58 372.81 638.98 371.54 634.68 368.95 630.81 367.55 626.54 367.74 621.83 366.63 617.5 365.54 613.16 364.94 608.72 363.95 604.37 361.99 600.18 362.41 595.57 360.67 591.31 360.46 586.82 358.56 582.54 358.47 578.03 358.66 573.51 357.58 569.11 356.86 564.66 356.85 560.16 356.8 555.67 357.89 551.13 357.84 546.65 357.52 542.19 355.41 537.72 355.5 533.18 355.69 528.64 357.06 524.09 356.52 519.56 357.28 515.03 355.98 510.5 356.98 505.98 355.6 501.43 356.86 496.92 355.69 492.36 357.82 487.87 357.44 483.34 356.48 478.78 357.59 474.27 355.82 469.69 355.94 465.16 357.7 460.67 357.92 456.14 358.11 451.61 358.54 447.09 356.52 442.5 356.66 437.98 358.39 433.48 358.92 428.84 356.85 424.17 357.75 419.54 358.69 414.91 359.4 410.27 358.01 405.61 359.42 400.98 358.55 396.33 359.31 391.68 358.19 387.05 358.68 382.5 358.14 377.97 358.93 373.36 357.62 368.91 356.53 364.47 356.2 359.94 355.85 355.41 354.63 351.01 353.49 346.61 354.01 341.91 353.63 337.39 352.18 333.07 350.1 328.85 350.17 324.23 348.81 319.86 349.28 315.23 349.03 310.72 346.65 306.35 347.77 301.76 347.32 297.22 348.14 292.53 348.15 287.73 349.26 283.08 351.23 278.71 354.6 275.19 356.18 270.61 360.24 268.01 363.32 264.44 367.54 262.5 371.12 259.41 375.58 258.02 379.73 255.95 384.2 254.72 388.34 252.85 393 252.47 396.82 249.67 400.98 247.82 405.86 248.16 410.08 246.57 413.88 243.43 418.34 242.26 422.98 241.63 427.06 239.35 431.66 238.6 436.13 237.47 440.69 236.61 444.53 233.63 448.94 232.37 453.68 232 457.8 229.89 462.24 229.16 466.01 226.67 470.15 225.17 474.38 223.95 478.66 222.96 482.31 219.92 486.66 219.09 491.2 219.57 495.39 217.55 499.82 217.91 504.49 219.52 509.5 217.91 514.22 219.04 518.56 221.46 522.91 223.43 527.74 224.09 532.6 225.01 536.79 227.45 540.44 230.44 543.93 233.54 548.51 235.11 551.42 238.9 555.93 240.82 558.5 244.86 561.71 248.21 564.85 251.62 567.35 255.55 570.67 258.89 573.08 262.88 575.3 266.98 577.1 271.27 578.72 275.63 579.31 280.31 581.02 284.58 582.75 288.89 583.06 293.35 585.18 297.5 585.93 301.9 584.63 306.52 585.22 310.91 585.85 315.37 586.87 319.9 587.04 324.5 585.65 328.91 584.54 333.31 584.08 337.89 582.85 342.29 579.4 345.81 578.6 350.36 577.52 354.87 573.46 357.84 572.62 362.53 569.41 365.88 568.54 370.65 566.12 374.47 562.05 377.44 559.43 381.34 556.51 385.05 554.74 389.52 552.23 393.52 549.97 397.32 547.11 400.75 544.81 404.56 542.35 408.35 541.68 412.88 539.74 417.02 540 421.59 539.97 426.03 538.92 430.64 539.86 435.13 543.36 438.69 543.01 443.76 545.85 447.43 548.02 451.45 551.34 454.63 554.84 457.55 557 461.69 559.73 465.42 563.38 468.15 567.34 470.47 571.73 472.16 574.32 476.21 578.87 477.61 582 480.99 586.25 482.77 589.12 486.78 592.62 489.92 597.07 491.62 601.36 493.58 605.26 496.11 608.25 500.02 612.09 502.64 616.74 504.06 620.13 507.35 624.85 508.72 627.53 512.97 631.33 515.62 635.82 517.4 639.27 520.54 643 523.35 645.84 527.16 649.37 530.2 652.09 534.05 656.72 536.08 659.76 539.67 661.22 544.42 663.99 548.1 667.24 551.62 669.71 555.72 671.82 559.01 675.63 556.94 676.22 553.43"/>
    </g>
  </g>
  <g>
    <polygon class="cls-1" points="563.71 117.29 562.28 122.11 559.29 125.66 558.28 130.24 556.54 134.42 554.82 138.75 553.34 143.34 555.04 147.94 556.33 152.31 556.14 157.36 559.2 161.1 563.63 162.99 566.94 166.41 571.6 165.56 576.04 165.37 580.31 163.78 584.39 161.62 587.33 157.96 591.51 157.31 595.05 156.55 598.95 156.2 603.27 157.46 607.71 158.49 612.25 158 616.64 157.06 621.19 156.47 624.88 153.74 629.49 152.17 632.05 148.16 632.72 143.46 633.96 139.34 635.82 135.02 634.72 130.56 633.16 126.35 632.44 121.82 629.42 118.29 628.59 117.38 627.35 112.86 624.3 109.59 620.61 107.07 616.99 104.55 612.92 102.87 608.87 101.08 604.59 99.61 600.07 99.43 595.58 99.84 591.33 101.36 587.26 103.1 583.26 104.85 579.14 106.42 575.4 108.76 572.02 111.59 568.66 114.42 565.01 117.04 563.71 117.29"/>
    <polygon class="cls-1" points="562.55 115.24 558.71 118.16 557.5 122.88 555.99 127.23 552.37 130.79 552.77 135.73 552.08 140.22 551.15 144.75 552.17 149.24 551.07 154.24 553.93 158.2 556.7 161.89 559.25 166.36 563.86 168.61 568.54 170.75 573.71 170.66 577.58 168.82 582.03 168.56 585.45 165.93 588.82 162.47 593.47 161.28 597.87 160.02 601.88 162.25 606.34 162.42 610.76 160.76 615.24 162.6 619.5 161.22 623.06 158.38 626.88 156.09 630.85 153.86 633.69 150.31 636.98 146.88 638.26 142.35 638.2 137.67 639.49 133.01 637.89 128.52 636.82 124 635.03 119.71 633.23 115.37 630.99 111.16 627.15 108.26 623.58 105.28 620.35 101.81 615.98 100.02 611.48 98.93 607.15 97.65 602.8 95.39 598.14 96.54 593.47 96.26 589.11 97.92 585.14 100.32 579.97 100.06 575.85 102.33 572.8 106.13 569.23 109 565.65 111.87 562.17 114.9 561.49 118.45 563.77 120.92 566.11 120.37 569.83 117.52 574.35 115.72 577.35 112.09 581.07 109.31 585.36 107.52 589.8 106.3 594.07 104.5 598.69 104.26 603.32 103.71 607.51 103.98 611.24 106.05 615.3 107.1 618.66 109.57 620.93 113.18 623.91 115.92 627.37 118.55 629.4 122.25 630.76 126.25 632.04 130.28 631.99 134.52 631.59 138.89 631.1 143.47 627.4 146.37 625.02 150.26 620.92 152.09 616.72 153.4 612.35 153.64 608.05 154.09 603.54 154.76 599.33 154.15 595.52 152.28 591.38 152.47 587.15 153.6 584.54 157.2 580.89 159.35 577.44 162.02 573.14 162.8 568.92 162.27 564.3 161.98 561.66 157.7 559.5 153.59 558.37 149.08 558.04 144.46 558.35 140.24 559.93 136.29 560.86 132.22 563.16 128.71 564.21 124.44 567.7 121.83 567.2 117.61 565.22 115.04 562.55 115.24"/>
  </g>
</svg>